<svg aria-hidden="true" style="position: absolute; width: 0; height: 0; overflow: hidden;" version="1.1" xmlns="http://www.w3.org/2000/svg" xmlns:xlink="http://www.w3.org/1999/xlink">
<defs>
<symbol id="icon-sunny" viewBox="0 0 24 24">
<title>sunny</title>
<path d="M12 18.141c-0.398 0-0.722 0.323-0.722 0.722v2.166c0 0.398 0.323 0.722 0.722 0.722s0.722-0.323 0.722-0.722v-2.166c0-0.398-0.323-0.722-0.722-0.722zM12 2.25c-0.398 0-0.722 0.323-0.722 0.722v2.166c0 0.398 0.323 0.722 0.722 0.722s0.722-0.323 0.722-0.722v-2.166c0-0.398-0.323-0.722-0.722-0.722zM5.859 12c0-0.398-0.323-0.722-0.722-0.722h-2.166c-0.398 0-0.722 0.323-0.722 0.722s0.323 0.722 0.722 0.722h2.166c0.398 0 0.722-0.323 0.722-0.722zM21.028 11.278h-2.166c-0.398 0-0.722 0.323-0.722 0.722s0.323 0.722 0.722 0.722h2.166c0.398 0 0.722-0.323 0.722-0.722s-0.323-0.722-0.722-0.722zM7.148 16.13c-0.192 0-0.375 0.075-0.511 0.211l-1.533 1.533c-0.136 0.136-0.211 0.319-0.211 0.511s0.075 0.375 0.211 0.511c0.136 0.136 0.319 0.211 0.511 0.211s0.375-0.075 0.511-0.211l1.533-1.533c0.281-0.281 0.281-0.741 0-1.022-0.136-0.136-0.319-0.211-0.511-0.211zM16.852 7.87c0.192 0 0.375-0.075 0.511-0.211l1.533-1.533c0.136-0.136 0.211-0.319 0.211-0.511s-0.075-0.375-0.211-0.511c-0.136-0.136-0.319-0.211-0.511-0.211s-0.375 0.075-0.511 0.211l-1.533 1.533c-0.136 0.136-0.211 0.319-0.211 0.511s0.075 0.375 0.211 0.511c0.136 0.136 0.319 0.211 0.511 0.211zM6.127 5.105c-0.136-0.136-0.319-0.211-0.511-0.211s-0.375 0.075-0.511 0.211c-0.136 0.136-0.211 0.319-0.211 0.511s0.075 0.375 0.211 0.511l1.533 1.533c0.136 0.136 0.319 0.211 0.511 0.211s0.375-0.075 0.511-0.211c0.136-0.136 0.211-0.319 0.211-0.511s-0.075-0.375-0.211-0.511l-1.533-1.533zM17.362 16.341c-0.136-0.136-0.319-0.211-0.511-0.211s-0.375 0.075-0.511 0.211c-0.281 0.281-0.281 0.741 0 1.022l1.533 1.533c0.136 0.136 0.319 0.211 0.511 0.211s0.375-0.075 0.511-0.211c0.136-0.136 0.211-0.319 0.211-0.511s-0.075-0.375-0.211-0.511l-1.533-1.533zM12 7.5c-2.48 0-4.5 2.020-4.5 4.5s2.020 4.5 4.5 4.5 4.5-2.020 4.5-4.5-2.020-4.5-4.5-4.5z"></path>
</symbol>
<symbol id="icon-moon" viewBox="0 0 32 32">
<title>moon</title>
<path d="M25.087 22.137c-0.181 0.006-0.363 0.012-0.544 0.012-2.994 0-5.813-1.181-7.925-3.337-2.119-2.15-3.281-5.006-3.281-8.050 0-1.731 0.381-3.406 1.094-4.919 0.194-0.412 0.581-1.038 0.85-1.462 0.119-0.181-0.031-0.419-0.244-0.381-0.375 0.056-0.95 0.181-1.731 0.425-4.863 1.544-8.306 6.119-8.306 11.512 0 6.663 5.319 12.063 11.881 12.063 3.625 0 6.875-1.65 9.056-4.256 0.375-0.45 0.719-0.863 1.025-1.363 0.113-0.188-0.044-0.419-0.256-0.381-0.531 0.106-1.069 0.113-1.619 0.137z"></path>
</symbol>
<symbol id="icon-arrow" viewBox="0 0 24 24">
<title>arrow</title>
<path d="M3.984 13.002h12.174l-5.611 5.611 1.453 1.403 8.016-8.016-8.016-8.016-1.403 1.403 5.561 5.611h-12.174v2.004z"></path>
</symbol>
<symbol id="icon-close" viewBox="0 0 24 24">
<title>close</title>
<path d="M18.984 6.412l-1.397-1.397-5.588 5.588-5.588-5.588-1.397 1.397 5.588 5.588-5.588 5.588 1.397 1.397 5.588-5.588 5.588 5.588 1.397-1.397-5.588-5.588z"></path>
</symbol>
<symbol id="icon-comments" viewBox="0 0 24 24">
<title>comments</title>
<path d="M20.203 15.028c0-0.206 0.056-0.403 0.155-0.572 0.028-0.052 0.066-0.098 0.098-0.145 0.816-1.219 1.294-2.677 1.294-4.233 0.014-4.322-3.633-7.828-8.142-7.828-3.933 0-7.214 2.677-7.983 6.23-0.112 0.52-0.173 1.050-0.173 1.603 0 4.327 3.506 7.927 8.016 7.927 0.717 0 1.683-0.216 2.213-0.361s1.055-0.338 1.191-0.389c0.136-0.052 0.286-0.080 0.436-0.080 0.169 0 0.328 0.033 0.473 0.094l2.658 0.942s0.112 0.047 0.183 0.047c0.206 0 0.375-0.164 0.375-0.375 0-0.047-0.023-0.127-0.023-0.127l-0.769-2.733z"></path>
<path d="M14.93 18.398c-0.169 0.047-0.384 0.098-0.619 0.15-0.492 0.103-1.12 0.211-1.594 0.211-4.509 0-8.016-3.6-8.016-7.927 0-0.309 0.033-0.703 0.070-1.003 0.028-0.202 0.061-0.403 0.108-0.6 0.047-0.211 0.103-0.422 0.164-0.628l-0.375 0.333c-1.537 1.341-2.419 3.253-2.419 5.245 0 1.373 0.398 2.695 1.163 3.844 0.108 0.164 0.169 0.291 0.15 0.375s-0.558 2.906-0.558 2.906c-0.028 0.136 0.023 0.272 0.127 0.361 0.070 0.056 0.155 0.084 0.239 0.084 0.047 0 0.094-0.009 0.136-0.028l2.63-1.036c0.084-0.033 0.173-0.052 0.267-0.052 0 0 0.113-0.009 0.295 0.061 0.886 0.347 1.866 0.563 2.845 0.563 2.184 0 4.237-0.942 5.63-2.583 0 0 0.15-0.206 0.323-0.45-0.173 0.061-0.37 0.122-0.567 0.173z"></path>
</symbol>
<symbol id="icon-star" viewBox="0 0 24 24">
<title>star</title>
<path d="M21.703 9h-6.895l-2.095-6.253c-0.103-0.305-0.389-0.497-0.712-0.497s-0.609 0.192-0.712 0.497l-2.095 6.253h-6.942c-0.412 0-0.75 0.337-0.75 0.75 0 0.042 0.005 0.089 0.014 0.127 0.009 0.164 0.084 0.347 0.314 0.53l5.667 3.994-2.175 6.323c-0.108 0.305 0 0.647 0.258 0.844 0.136 0.098 0.262 0.183 0.422 0.183 0.155 0 0.337-0.080 0.469-0.169l5.531-3.942 5.531 3.942c0.131 0.094 0.314 0.169 0.469 0.169 0.159 0 0.286-0.080 0.417-0.183 0.263-0.197 0.366-0.534 0.258-0.844l-2.175-6.323 5.62-4.031 0.136-0.117c0.122-0.131 0.244-0.309 0.244-0.502 0-0.413-0.384-0.75-0.797-0.75z"></path>
</symbol>
<symbol id="icon-link" viewBox="0 0 24 24">
<title>link</title>
<path d="M13.125 15.989l-0.056 0.005c-0.169 0.019-0.328 0.094-0.45 0.211l-3.028 3.028c-0.642 0.642-1.5 0.994-2.414 0.994s-1.772-0.352-2.414-0.994c-0.642-0.642-0.994-1.5-0.994-2.414s0.352-1.772 0.994-2.414l3.216-3.216c0.164-0.164 0.342-0.309 0.534-0.436 0.216-0.141 0.45-0.262 0.694-0.352 0.225-0.084 0.464-0.141 0.703-0.173 0.159-0.023 0.323-0.033 0.478-0.033 0.066 0 0.131 0.005 0.216 0.009 0.83 0.052 1.613 0.403 2.194 0.984 0.361 0.361 0.638 0.802 0.802 1.28 0.131 0.375 0.525 0.586 0.905 0.473 0.005 0 0.009-0.005 0.014-0.005s0.009 0 0.009-0.005c0.38-0.117 0.6-0.516 0.492-0.895-0.206-0.731-0.572-1.345-1.153-1.922-0.731-0.731-1.683-1.209-2.7-1.373-0.089-0.014-0.178-0.028-0.267-0.038-0.173-0.019-0.347-0.028-0.52-0.028-0.122 0-0.244 0.005-0.361 0.014-0.253 0.019-0.506 0.056-0.759 0.117-0.052 0.009-0.098 0.023-0.15 0.037-0.314 0.084-0.623 0.197-0.914 0.342-0.483 0.239-0.919 0.548-1.298 0.933l-3.216 3.216c-0.919 0.933-1.43 2.17-1.43 3.492s0.511 2.559 1.439 3.487c0.928 0.923 2.166 1.434 3.483 1.434 1.322 0 2.559-0.511 3.488-1.439l3.061-3.061c0.487-0.492 0.094-1.327-0.595-1.261z"></path>
<path d="M20.311 3.689c-0.928-0.928-2.166-1.439-3.483-1.439s-2.559 0.511-3.487 1.439l-2.986 2.986c-0.455 0.455-0.169 1.233 0.473 1.284 0.22 0.019 0.436-0.061 0.595-0.216l2.991-2.981c0.642-0.642 1.5-0.994 2.414-0.994s1.772 0.352 2.414 0.994c0.642 0.642 0.994 1.5 0.994 2.414s-0.352 1.772-0.994 2.414l-3.216 3.216c-0.164 0.164-0.342 0.309-0.534 0.436-0.216 0.141-0.45 0.262-0.694 0.352-0.225 0.084-0.464 0.141-0.703 0.173-0.159 0.023-0.323 0.033-0.478 0.033-0.066 0-0.136-0.005-0.216-0.009-0.83-0.052-1.613-0.403-2.194-0.984-0.342-0.342-0.6-0.75-0.769-1.195-0.136-0.361-0.52-0.558-0.895-0.459-0.417 0.108-0.661 0.548-0.53 0.961 0.211 0.656 0.567 1.214 1.111 1.758l0.009 0.009c0.792 0.792 1.847 1.294 2.967 1.411 0.173 0.019 0.347 0.028 0.52 0.028 0.122 0 0.244-0.005 0.366-0.014 0.305-0.023 0.609-0.075 0.905-0.15 0.314-0.084 0.623-0.197 0.914-0.342 0.483-0.239 0.919-0.548 1.298-0.933l3.216-3.216c0.928-0.928 1.439-2.166 1.439-3.487s-0.52-2.559-1.448-3.488z"></path>
</symbol>
<symbol id="icon-search" viewBox="0 0 24 24">
<title>search</title>
<path d="M20.789 19.697l-5.006-5.053c0.98-1.228 1.57-2.784 1.57-4.477 0-3.961-3.211-7.172-7.177-7.172s-7.177 3.216-7.177 7.177 3.211 7.172 7.177 7.172c1.716 0 3.286-0.6 4.523-1.603l4.973 5.020c0.15 0.159 0.356 0.239 0.558 0.239 0.192 0 0.384-0.070 0.53-0.211 0.309-0.295 0.319-0.783 0.028-1.092zM10.177 15.802c-1.505 0-2.92-0.586-3.984-1.65s-1.65-2.48-1.65-3.98c0-1.505 0.586-2.92 1.65-3.98 1.064-1.064 2.48-1.65 3.984-1.65s2.92 0.586 3.984 1.65c1.064 1.064 1.65 2.48 1.65 3.98 0 1.505-0.586 2.92-1.65 3.98-1.064 1.064-2.48 1.65-3.984 1.65z"></path>
</symbol>
<symbol id="icon-send" viewBox="0 0 24 24">
<title>send</title>
<path d="M20.433 3.042l-17.208 7.5c-0.305 0.145-0.295 0.581 0.014 0.717l4.655 2.63c0.277 0.155 0.619 0.122 0.858-0.084l9.178-7.913c0.061-0.052 0.206-0.15 0.263-0.094 0.061 0.061-0.033 0.202-0.084 0.263l-7.941 8.944c-0.22 0.248-0.253 0.614-0.075 0.895l3.042 4.88c0.15 0.295 0.577 0.291 0.712-0.009l7.116-17.208c0.155-0.338-0.197-0.68-0.53-0.52z"></path>
</symbol>
<symbol id="icon-heart" viewBox="0 0 24 24">
<title>heart</title>
<path d="M16.5 2.625h-0.047c-1.861 0-3.506 0.984-4.453 2.438-0.947-1.453-2.592-2.438-4.453-2.438h-0.047c-2.902 0.028-5.25 2.386-5.25 5.297 0 1.734 0.759 4.195 2.241 6.22 2.822 3.858 7.509 7.233 7.509 7.233s4.688-3.375 7.509-7.233c1.481-2.025 2.241-4.486 2.241-6.22 0-2.911-2.348-5.269-5.25-5.297z"></path>
</symbol>
<symbol id="icon-rss" viewBox="0 0 24 24">
<title>rss</title>
<path d="M5.62 15.755c-1.444 0-2.62 1.177-2.62 2.616 0 1.444 1.177 2.606 2.62 2.606 1.448 0 2.62-1.167 2.62-2.606s-1.172-2.616-2.62-2.616z"></path>
<path d="M3 9v3.745c2.25 0 4.411 0.666 6 2.255s2.25 3.745 2.25 6h3.75c0-6.558-5.438-12-12-12z"></path>
<path d="M3 3v3.745c8.016 0 14.245 6.234 14.245 14.255h3.755c0-9.923-8.063-18-18-18z"></path>
</symbol>
<symbol id="icon-arrow-forward" viewBox="0 0 24 24">
<title>arrow-forward</title>
<path d="M13.786 12l-5.958-5.953c-0.441-0.441-0.441-1.153 0-1.589s1.153-0.436 1.594 0l6.75 6.745c0.427 0.427 0.436 1.111 0.033 1.552l-6.778 6.792c-0.22 0.22-0.511 0.328-0.797 0.328s-0.577-0.108-0.797-0.328c-0.441-0.441-0.441-1.153 0-1.589l5.953-5.958z"></path>
</symbol>
<symbol id="icon-twitter" viewBox="0 0 24 24">
<title>twitter</title>
<path d="M23.063 5.133c-0.816 0.361-1.688 0.605-2.606 0.717 0.938-0.563 1.659-1.453 1.997-2.513-0.877 0.52-1.847 0.9-2.883 1.102-0.83-0.886-2.011-1.439-3.314-1.439-2.508 0-4.538 2.034-4.538 4.542 0 0.356 0.038 0.703 0.117 1.036-3.773-0.188-7.12-1.997-9.356-4.748-0.389 0.67-0.614 1.453-0.614 2.283 0 1.575 0.806 2.967 2.025 3.783-0.75-0.019-1.453-0.225-2.063-0.567v0.056c0 2.203 1.566 4.036 3.642 4.453-0.38 0.103-0.783 0.159-1.195 0.159-0.291 0-0.577-0.028-0.853-0.084 0.577 1.805 2.255 3.117 4.242 3.155-1.552 1.219-3.511 1.945-5.639 1.945-0.366 0-0.727-0.023-1.083-0.066 2.002 1.303 4.387 2.053 6.947 2.053 8.358 0 12.923-6.923 12.923-12.928 0-0.197-0.005-0.394-0.014-0.586 0.886-0.642 1.655-1.439 2.264-2.353z"></path>
</symbol>
<symbol id="icon-linkedin" viewBox="0 0 24 24">
<title>linkedin</title>
<path d="M19.556 3h-15.019c-0.82 0-1.537 0.591-1.537 1.402v15.052c0 0.816 0.717 1.542 1.537 1.542h15.014c0.825 0 1.444-0.731 1.444-1.542v-15.052c0.005-0.811-0.619-1.402-1.439-1.402zM8.578 18h-2.578v-8.016h2.578v8.016zM7.378 8.766h-0.019c-0.825 0-1.359-0.614-1.359-1.383 0-0.783 0.548-1.383 1.392-1.383s1.359 0.595 1.378 1.383c0 0.769-0.534 1.383-1.392 1.383zM18 18h-2.578v-4.383c0-1.050-0.375-1.767-1.308-1.767-0.713 0-1.134 0.483-1.322 0.952-0.070 0.169-0.089 0.398-0.089 0.633v4.566h-2.578v-8.016h2.578v1.116c0.375-0.534 0.961-1.303 2.325-1.303 1.692 0 2.972 1.116 2.972 3.52v4.683z"></path>
</symbol>
<symbol id="icon-facebook" viewBox="0 0 24 24">
<title>facebook</title>
<path d="M20.006 3h-16.013c-0.548 0-0.994 0.445-0.994 0.994v16.013c0 0.548 0.445 0.994 0.994 0.994h8.006v-7.125h-2.152v-2.625h2.152v-1.941c0-2.325 1.612-3.591 3.689-3.591 0.994 0 2.063 0.075 2.311 0.108v2.428h-1.655c-1.13 0-1.345 0.534-1.345 1.322v1.673h2.691l-0.352 2.625h-2.339v7.125h5.006c0.548 0 0.994-0.445 0.994-0.994v-16.013c0-0.548-0.445-0.994-0.994-0.994z"></path>
</symbol>
<symbol id="icon-github" viewBox="0 0 24 24">
<title>github</title>
<path d="M12 1.5c-5.798 0-10.5 4.823-10.5 10.767 0 4.758 3.009 8.789 7.181 10.214 0.066 0.014 0.122 0.019 0.178 0.019 0.389 0 0.539-0.286 0.539-0.534 0-0.258-0.009-0.933-0.014-1.833-0.394 0.089-0.745 0.127-1.059 0.127-2.020 0-2.48-1.57-2.48-1.57-0.478-1.242-1.167-1.575-1.167-1.575-0.914-0.642-0.005-0.661 0.066-0.661h0.005c1.055 0.094 1.608 1.116 1.608 1.116 0.525 0.919 1.228 1.177 1.856 1.177 0.492 0 0.938-0.159 1.2-0.281 0.094-0.694 0.366-1.167 0.666-1.439-2.33-0.272-4.781-1.195-4.781-5.32 0-1.177 0.408-2.137 1.078-2.887-0.108-0.272-0.469-1.369 0.103-2.85 0 0 0.075-0.023 0.234-0.023 0.38 0 1.238 0.145 2.653 1.13 0.839-0.239 1.734-0.356 2.63-0.361 0.891 0.005 1.791 0.122 2.63 0.361 1.416-0.984 2.273-1.13 2.653-1.13 0.159 0 0.234 0.023 0.234 0.023 0.572 1.481 0.211 2.578 0.103 2.85 0.67 0.755 1.078 1.716 1.078 2.887 0 4.134-2.456 5.044-4.795 5.311 0.375 0.333 0.713 0.989 0.713 1.992 0 1.439-0.014 2.602-0.014 2.953 0 0.253 0.145 0.539 0.534 0.539 0.056 0 0.122-0.005 0.188-0.019 4.177-1.425 7.181-5.461 7.181-10.214 0-5.944-4.702-10.767-10.5-10.767z"></path>
</symbol>
<symbol id="icon-instagram" viewBox="0 0 24 24">
<title>instagram</title>
<path d="M15.75 4.5c0.994 0 1.936 0.394 2.648 1.102s1.102 1.655 1.102 2.648v7.5c0 0.994-0.394 1.936-1.102 2.648s-1.655 1.102-2.648 1.102h-7.5c-0.994 0-1.936-0.394-2.648-1.102s-1.102-1.655-1.102-2.648v-7.5c0-0.994 0.394-1.936 1.102-2.648s1.655-1.102 2.648-1.102h7.5zM15.75 3h-7.5c-2.887 0-5.25 2.363-5.25 5.25v7.5c0 2.888 2.363 5.25 5.25 5.25h7.5c2.888 0 5.25-2.362 5.25-5.25v-7.5c0-2.887-2.362-5.25-5.25-5.25z"></path>
<path d="M16.875 8.25c-0.623 0-1.125-0.502-1.125-1.125s0.502-1.125 1.125-1.125c0.619 0 1.125 0.502 1.125 1.125s-0.506 1.125-1.125 1.125zM12 9c1.655 0 3 1.345 3 3s-1.345 3-3 3-3-1.345-3-3 1.345-3 3-3zM12 7.5c-2.484 0-4.5 2.016-4.5 4.5s2.016 4.5 4.5 4.5 4.5-2.016 4.5-4.5-2.016-4.5-4.5-4.5z"></path>
</symbol>
<symbol id="icon-youtube" viewBox="0 0 24 24">
<title>youtube</title>
<path d="M23.841 6.975c0-2.109-1.552-3.806-3.469-3.806-2.597-0.122-5.245-0.169-7.95-0.169h-0.844c-2.7 0-5.353 0.047-7.95 0.169-1.912 0-3.464 1.706-3.464 3.816-0.117 1.669-0.169 3.337-0.164 5.006-0.005 1.669 0.047 3.337 0.159 5.011 0 2.109 1.552 3.82 3.464 3.82 2.728 0.127 5.527 0.183 8.372 0.178 2.85 0.009 5.639-0.047 8.372-0.178 1.917 0 3.469-1.711 3.469-3.82 0.112-1.673 0.164-3.342 0.159-5.016 0.009-1.669-0.042-3.337-0.155-5.011zM9.703 16.589v-9.211l6.797 4.603-6.797 4.608z"></path>
</symbol>
<symbol id="icon-whatsapp" viewBox="0 0 24 24">
<title>whatsapp</title>
<path d="M12.19 1.5c-5.693 0-10.309 4.58-10.309 10.23 0 1.933 0.541 3.74 1.479 5.282l-1.861 5.488 5.708-1.813c1.477 0.81 3.176 1.272 4.983 1.272 5.694 0 10.31-4.58 10.31-10.23s-4.616-10.23-10.31-10.23zM17.317 15.615c-0.243 0.601-1.339 1.15-1.823 1.175s-0.497 0.375-3.133-0.77c-2.636-1.145-4.221-3.93-4.346-4.11s-1.021-1.455-0.973-2.74c0.049-1.285 0.752-1.891 1.003-2.143s0.538-0.298 0.714-0.301c0.208-0.003 0.342-0.006 0.496-0.001s0.384-0.032 0.584 0.499c0.2 0.531 0.677 1.835 0.738 1.968s0.099 0.287 0.005 0.458c-0.094 0.171-0.143 0.278-0.279 0.426s-0.289 0.33-0.412 0.443c-0.137 0.125-0.28 0.261-0.136 0.528s0.64 1.142 1.396 1.863c0.971 0.927 1.809 1.234 2.067 1.374s0.413 0.125 0.573-0.044c0.16-0.169 0.686-0.738 0.872-0.992s0.359-0.205 0.597-0.109c0.238 0.096 1.507 0.776 1.766 0.916s0.431 0.212 0.493 0.323c0.062 0.112 0.042 0.634-0.2 1.236z"></path>
</symbol>
<symbol id="icon-map" viewBox="0 0 24 24">
<title>map</title>
<path stroke-linejoin="round" stroke-linecap="round" stroke-miterlimit="4" stroke-width="2" fill="none" d="M21 10c0 7-9 13-9 13s-9-6-9-13c0-4.971 4.029-9 9-9s9 4.029 9 9z"></path>
<path stroke-linejoin="round" stroke-linecap="round" stroke-miterlimit="4" stroke-width="2" fill="none" d="M15 10c0 1.657-1.343 3-3 3s-3-1.343-3-3v0c0-1.657 1.343-3 3-3s3 1.343 3 3v0z"></path>
</symbol>
<symbol id="icon-reddit" viewBox="0 0 28 28">
<title>reddit</title>
<path d="M28 13.219c0 1.219-0.688 2.266-1.703 2.781 0.125 0.484 0.187 0.984 0.187 1.5 0 4.937-5.578 8.937-12.453 8.937-6.859 0-12.437-4-12.437-8.937 0-0.5 0.063-1 0.172-1.469-1.047-0.516-1.766-1.578-1.766-2.812 0-1.719 1.391-3.109 3.109-3.109 0.891 0 1.687 0.375 2.266 0.984 2.109-1.469 4.922-2.422 8.047-2.531l1.813-8.141c0.063-0.281 0.359-0.469 0.641-0.406l5.766 1.266c0.375-0.75 1.172-1.281 2.078-1.281 1.297 0 2.344 1.047 2.344 2.328 0 1.297-1.047 2.344-2.344 2.344-1.281 0-2.328-1.047-2.328-2.328l-5.219-1.156-1.625 7.375c3.141 0.094 5.984 1.031 8.109 2.5 0.562-0.594 1.359-0.953 2.234-0.953 1.719 0 3.109 1.391 3.109 3.109zM6.531 16.328c0 1.297 1.047 2.344 2.328 2.344 1.297 0 2.344-1.047 2.344-2.344 0-1.281-1.047-2.328-2.344-2.328-1.281 0-2.328 1.047-2.328 2.328zM19.187 21.875c0.234-0.234 0.234-0.578 0-0.812-0.219-0.219-0.578-0.219-0.797 0-0.938 0.953-2.953 1.281-4.391 1.281s-3.453-0.328-4.391-1.281c-0.219-0.219-0.578-0.219-0.797 0-0.234 0.219-0.234 0.578 0 0.812 1.484 1.484 4.344 1.594 5.187 1.594s3.703-0.109 5.187-1.594zM19.141 18.672c1.281 0 2.328-1.047 2.328-2.344 0-1.281-1.047-2.328-2.328-2.328-1.297 0-2.344 1.047-2.344 2.328 0 1.297 1.047 2.344 2.344 2.344z"></path>
</symbol>
</defs>
</svg>