<svg xmlns="http://www.w3.org/2000/svg" width="1867" height="740"><defs><linearGradient id="a" x1="3.193%" y1="96.807%" y2="0%"><stop offset="0%" stop-color="#FFF" stop-opacity=".398"/><stop offset="100%" stop-color="#FFF" stop-opacity=".106"/></linearGradient></defs><g fill="url(#a)" opacity=".2" transform="translate(-197 -300)"><path d="M198 413.569 254.57 357l56.568 56.569-56.569 56.568zm57 57L311.57 414l56.568 56.569-56.569 56.568zm0 114L311.57 528l56.568 56.569-56.569 56.568z" opacity=".2"/><path d="M198 641.569 254.57 585l56.568 56.569-56.569 56.568z" opacity=".3"/><path d="M255 698.569 311.57 642l56.568 56.569-56.569 56.568zm0 114L311.57 756l56.568 56.569-56.569 56.568z"/><path d="M198 869.569 254.57 813l56.568 56.569-56.569 56.568z" opacity=".2"/><path d="M255 926.569 311.57 870l56.568 56.569-56.569 56.568z" opacity=".15"/><path d="m197.931 983.137 56.569-56.569 56.568 56.569-56.568 56.569z" opacity=".3"/><path d="M311 527.569 367.57 471l56.568 56.569-56.569 56.568z" opacity=".15"/><path d="M368 584.569 424.57 528l56.568 56.569-56.569 56.568z" opacity=".9"/><path d="M311 641.569 367.57 585l56.568 56.569-56.569 56.568z" opacity=".4"/><path d="M368 698.569 424.57 642l56.568 56.569-56.569 56.568z"/><path d="M311 755.569 367.57 699l56.568 56.569-56.569 56.568zm57 57L424.57 756l56.568 56.569-56.569 56.568z" opacity=".4"/><path d="M311 869.569 367.57 813l56.568 56.569-56.569 56.568z" opacity=".2"/><path d="M368 926.569 424.57 870l56.568 56.569-56.569 56.568z" opacity=".7"/><path d="m310.931 983.137 56.569-56.569 56.568 56.569-56.568 56.569z" opacity=".2"/><path d="M481 356.569 537.57 300l56.568 56.569-56.569 56.568z" opacity=".3"/><path d="M424 413.569 480.57 357l56.568 56.569-56.569 56.568z" opacity=".2"/><path d="M481 470.569 537.57 414l56.568 56.569-56.569 56.568z" opacity=".1"/><path d="M424 527.569 480.57 471l56.568 56.569-56.569 56.568z"/><path d="M481 584.569 537.57 528l56.568 56.569-56.569 56.568z" opacity=".2"/><path d="M424 641.569 480.57 585l56.568 56.569-56.569 56.568z" opacity=".15"/><path d="M425 755.569 481.57 699l56.568 56.569-56.569 56.568z" opacity=".9"/><path d="M481 812.569 537.57 756l56.568 56.569-56.569 56.568z"/><path d="M424 869.569 480.57 813l56.568 56.569-56.569 56.568z" opacity=".4"/><path d="M481 926.569 537.57 870l56.568 56.569-56.569 56.568z" opacity=".15"/><path d="m423.931 983.137 56.569-56.569 56.568 56.569-56.568 56.569z"/><path d="M594 356.569 650.57 300l56.568 56.569-56.569 56.568z" opacity=".15"/><path d="M537 413.569 593.57 357l56.568 56.569-56.569 56.568z" opacity=".4"/><path d="M594 470.569 650.57 414l56.568 56.569-56.569 56.568z" opacity=".25"/><path d="M537 527.569 593.57 471l56.568 56.569-56.569 56.568z" opacity=".15"/><path d="M594 584.569 650.57 528l56.568 56.569-56.569 56.568z"/><path d="M538 641.569 594.57 585l56.568 56.569-56.569 56.568z" opacity=".3"/><path d="M594 698.569 650.57 642l56.568 56.569-56.569 56.568z" opacity=".4"/><path d="M537 755.569 593.57 699l56.568 56.569-56.569 56.568z" opacity=".2"/><path d="M594 812.569 650.57 756l56.568 56.569-56.569 56.568z"/><path d="M538 869.569 594.57 813l56.568 56.569-56.569 56.568z" opacity=".4"/><path d="M707 356.569 763.57 300l56.568 56.569-56.569 56.568z" opacity=".25"/><path d="M650 413.569 706.57 357l56.568 56.569-56.569 56.568z" opacity=".15"/><path d="M707 470.569 763.57 414l56.568 56.569-56.569 56.568z" opacity=".2"/><path d="M650 527.569 706.57 471l56.568 56.569-56.569 56.568z" opacity=".7"/><path d="M707 584.569 763.57 528l56.568 56.569-56.569 56.568z" opacity=".25"/><path d="M651 641.569 707.57 585l56.568 56.569-56.569 56.568z" opacity=".4"/><path d="M707 698.569 763.57 642l56.568 56.569-56.569 56.568zm-57 57L706.57 699l56.568 56.569-56.569 56.568z" opacity=".15"/><path d="M707 812.569 763.57 756l56.568 56.569-56.569 56.568z" opacity=".3"/><path d="m649.931 983.137 56.569-56.569 56.568 56.569-56.568 56.569z" opacity=".4"/><path d="M820 356.569 876.57 300l56.568 56.569-56.569 56.568z" opacity=".2"/><path d="M763 413.569 819.57 357l56.568 56.569-56.569 56.568zm57 57L876.57 414l56.568 56.569-56.569 56.568zm-57 57L819.57 471l56.568 56.569-56.569 56.568z"/><path d="M820 584.569 876.57 528l56.568 56.569-56.569 56.568z" opacity=".9"/><path d="M764 641.569 820.57 585l56.568 56.569-56.569 56.568z" opacity=".2"/><path d="M820 698.569 876.57 642l56.568 56.569-56.569 56.568z"/><path d="M764 755.569 820.57 699l56.568 56.569-56.569 56.568z" opacity=".2"/><path d="M820 812.569 876.57 756l56.568 56.569-56.569 56.568z" opacity=".15"/><path d="M764 869.569 820.57 813l56.568 56.569-56.569 56.568z"/><path d="M820 926.569 876.57 870l56.568 56.569-56.569 56.568z" opacity=".2"/><path d="m762.931 983.137 56.569-56.569 56.568 56.569-56.568 56.569z"/><path d="M933 356.569 989.57 300l56.568 56.569-56.569 56.568zm-57 57L932.57 357l56.568 56.569-56.569 56.568z" opacity=".4"/><path d="M933 470.569 989.57 414l56.568 56.569-56.569 56.568z" opacity=".2"/><path d="M876 527.569 932.57 471l56.568 56.569-56.569 56.568z" opacity=".3"/><path d="M933 584.569 989.57 528l56.568 56.569-56.569 56.568z"/><path d="M877 641.569 933.57 585l56.568 56.569-56.569 56.568z"/><path d="M933 698.569 989.57 642l56.568 56.569-56.569 56.568z" opacity=".25"/><path d="M876 755.569 932.57 699l56.568 56.569-56.569 56.568z" opacity=".4"/><path d="M933 812.569 989.57 756l56.568 56.569-56.569 56.568z"/><path d="M877 869.569 933.57 813l56.568 56.569-56.569 56.568z" opacity=".2"/><path d="M933 926.569 989.57 870l56.568 56.569-56.569 56.568z" opacity=".3"/><path d="M1046 356.569 1102.57 300l56.568 56.569-56.569 56.568z" opacity=".7"/><path d="M989 413.569 1045.57 357l56.568 56.569-56.569 56.568z"/><path d="M1046 470.569 1102.57 414l56.568 56.569-56.569 56.568z" opacity=".15"/><path d="M989 527.569 1045.57 471l56.568 56.569-56.569 56.568z" opacity=".2"/><path d="M1046 584.569 1102.57 528l56.568 56.569-56.569 56.568z"/><path d="M989 641.569 1045.57 585l56.568 56.569-56.569 56.568z" opacity=".3"/><path d="M1046 698.569 1102.57 642l56.568 56.569-56.569 56.568z" opacity=".2"/><path d="M989 755.569 1045.57 699l56.568 56.569-56.569 56.568z"/><path d="M989 869.569 1045.57 813l56.568 56.569-56.569 56.568z" opacity=".4"/><path d="M1046 926.569 1102.57 870l56.568 56.569-56.569 56.568z"/><path d="m988.931 983.137 56.569-56.569 56.568 56.569-56.568 56.569z" opacity=".9"/><path d="M1159 356.569 1215.57 300l56.568 56.569-56.569 56.568z" opacity=".3"/><path d="M1102 413.569 1158.57 357l56.568 56.569-56.569 56.568z" opacity=".4"/><path d="M1159 470.569 1215.57 414l56.568 56.569-56.569 56.568z" opacity=".2"/><path d="M1102 527.569 1158.57 471l56.568 56.569-56.569 56.568z" opacity=".25"/><path d="M1159 584.569 1215.57 528l56.568 56.569-56.569 56.568z" opacity=".2"/><path d="M1102 641.569 1158.57 585l56.568 56.569-56.569 56.568zm0 114L1158.57 699l56.568 56.569-56.569 56.568z"/><path d="M1159 812.569 1215.57 756l56.568 56.569-56.569 56.568z" opacity=".4"/><path d="M1102 869.569 1158.57 813l56.568 56.569-56.569 56.568z" opacity=".3"/><path d="m1101.931 983.137 56.569-56.569 56.568 56.569-56.568 56.569z" opacity=".4"/><path d="M1272 356.569 1328.57 300l56.568 56.569-56.569 56.568z" opacity=".15"/><path d="M1215 413.569 1271.57 357l56.568 56.569-56.569 56.568z"/><path d="M1272 470.569 1328.57 414l56.568 56.569-56.569 56.568z" opacity=".3"/><path d="M1215 527.569 1271.57 471l56.568 56.569-56.569 56.568z" opacity=".9"/><path d="M1271 584.569 1327.57 528l56.568 56.569-56.569 56.568z" opacity=".25"/><path d="M1216 641.569 1272.57 585l56.568 56.569-56.569 56.568z" opacity=".4"/><path d="M1271 698.569 1327.57 642l56.568 56.569-56.569 56.568z" opacity=".7"/><path d="M1216 755.569 1272.57 699l56.568 56.569-56.569 56.568z" opacity=".9"/><path d="M1272 812.569 1328.57 756l56.568 56.569-56.569 56.568z"/><path d="M1216 869.569 1272.57 813l56.568 56.569-56.569 56.568z" opacity=".3"/><path d="M1272 926.569 1328.57 870l56.568 56.569-56.569 56.568z"/><path d="M1328 527.569 1384.57 471l56.568 56.569-56.569 56.568z" opacity=".2"/><path d="M1385 584.569 1441.57 528l56.568 56.569-56.569 56.568z"/><path d="M1328 641.569 1384.57 585l56.568 56.569-56.569 56.568z" opacity=".3"/><path d="M1385 698.569 1441.57 642l56.568 56.569-56.569 56.568z" opacity=".2"/><path d="M1328 755.569 1384.57 699l56.568 56.569-56.569 56.568z" opacity=".4"/><path d="M1385 812.569 1441.57 756l56.568 56.569-56.569 56.568z" opacity=".15"/><path d="M1385 926.569 1441.57 870l56.568 56.569-56.569 56.568z" opacity=".2"/><path d="m1327.931 983.137 56.569-56.569 56.568 56.569-56.568 56.569zM1441 413.569 1497.57 357l56.568 56.569-56.569 56.568z"/><path d="M1498 470.569 1554.57 414l56.568 56.569-56.569 56.568zm-57 57L1497.57 471l56.568 56.569-56.569 56.568z" opacity=".15"/><path d="M1498 584.569 1554.57 528l56.568 56.569-56.569 56.568z" opacity=".9"/><path d="M1441 641.569 1497.57 585l56.568 56.569-56.569 56.568z" opacity=".4"/><path d="M1498 698.569 1554.57 642l56.568 56.569-56.569 56.568z" opacity=".7"/><path d="M1441 755.569 1497.57 699l56.568 56.569-56.569 56.568z"/><path d="M1498 812.569 1554.57 756l56.568 56.569-56.569 56.568z" opacity=".2"/><path d="M1441 869.569 1497.57 813l56.568 56.569-56.569 56.568z" opacity=".9"/><path d="M1498 926.569 1554.57 870l56.568 56.569-56.569 56.568z" opacity=".7"/><path d="m1440.931 983.137 56.569-56.569 56.568 56.569-56.568 56.569z" opacity=".2"/><path d="M1611 356.569 1667.57 300l56.568 56.569-56.569 56.568z" opacity=".3"/><path d="M1554 413.569 1610.57 357l56.568 56.569-56.569 56.568z" opacity=".9"/><path d="M1611 470.569 1667.57 414l56.568 56.569-56.569 56.568z" opacity=".2"/><path d="M1611 584.569 1667.57 528l56.568 56.569-56.569 56.568z" opacity=".4"/><path d="M1554 641.569 1610.57 585l56.568 56.569-56.569 56.568z"/><path d="M1611 698.569 1667.57 642l56.568 56.569-56.569 56.568z" opacity=".2"/><path d="M1554 755.569 1610.57 699l56.568 56.569-56.569 56.568z" opacity=".25"/><path d="M1611 812.569 1667.57 756l56.568 56.569-56.569 56.568z" opacity=".15"/><path d="M1554 869.569 1610.57 813l56.568 56.569-56.569 56.568z" opacity=".2"/><path d="M1611 926.569 1667.57 870l56.568 56.569-56.569 56.568z" opacity=".15"/><path d="m1553.931 983.137 56.569-56.569 56.568 56.569-56.568 56.569z"/><path d="M1724 356.569 1780.57 300l56.568 56.569-56.569 56.568z" opacity=".15"/><path d="M1667 413.569 1723.57 357l56.568 56.569-56.569 56.568z"/><path d="M1724 470.569 1780.57 414l56.568 56.569-56.569 56.568z" opacity=".7"/><path d="M1667 527.569 1723.57 471l56.568 56.569-56.569 56.568z"/><path d="M1724 584.569 1780.57 528l56.568 56.569-56.569 56.568z" opacity=".2"/><path d="M1667 641.569 1723.57 585l56.568 56.569-56.569 56.568z"/><path d="M1724 698.569 1780.57 642l56.568 56.569-56.569 56.568z" opacity=".15"/><path d="M1667 755.569 1723.57 699l56.568 56.569-56.569 56.568z"/><path d="M1724 812.569 1780.57 756l56.568 56.569-56.569 56.568z" opacity=".2"/><path d="M1667 869.569 1723.57 813l56.568 56.569-56.569 56.568z"/><path d="M1837 356.569 1893.57 300l56.568 56.569-56.569 56.568z" opacity=".4"/><path d="M1780 413.569 1836.57 357l56.568 56.569-56.569 56.568z" opacity=".15"/><path d="M1837 470.569 1893.57 414l56.568 56.569-56.569 56.568z" opacity=".4"/><path d="M1780 527.569 1836.57 471l56.568 56.569-56.569 56.568z" opacity=".34"/><path d="M1837 584.569 1893.57 528l56.568 56.569-56.569 56.568z" opacity=".7"/><path d="M1780 641.569 1836.57 585l56.568 56.569-56.569 56.568z" opacity=".15"/><path d="M1837 698.569 1893.57 642l56.568 56.569-56.569 56.568z" opacity=".2"/><path d="M1780 755.569 1836.57 699l56.568 56.569-56.569 56.568z" opacity=".34"/><path d="M1837 812.569 1893.57 756l56.568 56.569-56.569 56.568z" opacity=".15"/><path d="M1780 869.569 1836.57 813l56.568 56.569-56.569 56.568z"/><path d="M1837 926.569 1893.57 870l56.568 56.569-56.569 56.568z" opacity=".4"/><path d="m1779.931 983.137 56.569-56.569 56.568 56.569-56.568 56.569z"/><path d="M1893 527.569 1949.57 471l56.568 56.569-56.569 56.568z" opacity=".9"/><path d="M1950 584.569 2006.57 528l56.568 56.569-56.569 56.568z" opacity=".2"/><path d="M1893 641.569 1949.57 585l56.568 56.569-56.569 56.568zm57 57L2006.57 642l56.568 56.569-56.569 56.568z"/><path d="M1893 755.569 1949.57 699l56.568 56.569-56.569 56.568z" opacity=".7"/><path d="M1950 812.569 2006.57 756l56.568 56.569-56.569 56.568z" opacity=".2"/><path d="M1893 869.569 1949.57 813l56.568 56.569-56.569 56.568zm57 57L2006.57 870l56.568 56.569-56.569 56.568zm-57.069 56.568 56.569-56.569 56.568 56.569-56.568 56.569z"/></g></svg>
