<svg aria-hidden="true" style="position: absolute; width: 0; height: 0; overflow: hidden;" version="1.1" xmlns="http://www.w3.org/2000/svg" xmlns:xlink="http://www.w3.org/1999/xlink">
<defs>
<symbol id="icon-link" viewBox="0 0 32 32">
<path stroke-linejoin="round" stroke-linecap="round" stroke-miterlimit="4" stroke-width="2.25" d="M13 22h-4c-3.314 0-6-2.686-6-6s2.686-6 6-6v0h4M19 10h4c3.314 0 6 2.686 6 6s-2.686 6-6 6v0h-4M10.206 16h11.714"></path>
</symbol>
<symbol id="icon-map" viewBox="0 0 32 32">
<path stroke-linejoin="round" stroke-linecap="round" stroke-miterlimit="4" stroke-width="2" d="M28 4l-24 11.009h12.5c0.276 0 0.5 0.224 0.5 0.5v0 12.491z"></path>
</symbol>
<symbol id="icon-checkmark" viewBox="0 0 27 32">
<path d="M13.333 27.111c6.136 0 11.111-4.974 11.111-11.111s-4.974-11.111-11.111-11.111v0c-6.136 0-11.111 4.974-11.111 11.111s4.974 11.111 11.111 11.111v0zM13.333 29.333c-7.364 0-13.333-5.969-13.333-13.333s5.969-13.333 13.333-13.333 13.333 5.969 13.333 13.333-5.969 13.333-13.333 13.333zM11.741 18.935l-4.289-4.287-1.571 1.573 5.861 5.857 9.421-9.443-1.573-1.569-7.849 7.868z"></path>
</symbol>
<symbol id="icon-sunny" viewBox="0 0 32 32">
<path d="M16 24.188c-0.531 0-0.963 0.431-0.963 0.962v2.887c0 0.531 0.431 0.962 0.963 0.962s0.962-0.431 0.962-0.962v-2.887c0-0.531-0.431-0.962-0.963-0.962zM16 3c-0.531 0-0.963 0.431-0.963 0.962v2.887c0 0.531 0.431 0.963 0.963 0.963s0.962-0.431 0.962-0.963v-2.888c0-0.531-0.431-0.962-0.963-0.962zM7.813 16c0-0.531-0.431-0.963-0.963-0.963h-2.888c-0.531 0-0.962 0.431-0.962 0.963s0.431 0.962 0.962 0.962h2.888c0.531 0 0.963-0.431 0.963-0.963zM28.038 15.037h-2.887c-0.531 0-0.962 0.431-0.962 0.963s0.431 0.962 0.962 0.962h2.887c0.531 0 0.962-0.431 0.962-0.963s-0.431-0.963-0.962-0.963zM9.531 21.506c-0.256 0-0.5 0.1-0.681 0.281l-2.044 2.044c-0.181 0.181-0.281 0.425-0.281 0.681s0.1 0.5 0.281 0.681c0.181 0.181 0.425 0.281 0.681 0.281s0.5-0.1 0.681-0.281l2.044-2.044c0.375-0.375 0.375-0.988 0-1.363-0.181-0.181-0.425-0.281-0.681-0.281zM22.469 10.494c0.256 0 0.5-0.1 0.681-0.281l2.044-2.044c0.181-0.181 0.281-0.425 0.281-0.681s-0.1-0.5-0.281-0.681c-0.181-0.181-0.425-0.281-0.681-0.281s-0.5 0.1-0.681 0.281l-2.044 2.044c-0.181 0.181-0.281 0.425-0.281 0.681s0.1 0.5 0.281 0.681c0.181 0.181 0.425 0.281 0.681 0.281zM8.169 6.806c-0.181-0.181-0.425-0.281-0.681-0.281s-0.5 0.1-0.681 0.281c-0.181 0.181-0.281 0.425-0.281 0.681s0.1 0.5 0.281 0.681l2.044 2.044c0.181 0.181 0.425 0.281 0.681 0.281s0.5-0.1 0.681-0.281c0.181-0.181 0.281-0.425 0.281-0.681s-0.1-0.5-0.281-0.681l-2.044-2.044zM23.15 21.788c-0.181-0.181-0.425-0.281-0.681-0.281s-0.5 0.1-0.681 0.281c-0.375 0.375-0.375 0.988 0 1.363l2.044 2.044c0.181 0.181 0.425 0.281 0.681 0.281s0.5-0.1 0.681-0.281c0.181-0.181 0.281-0.425 0.281-0.681s-0.1-0.5-0.281-0.681l-2.044-2.044zM16 10c-3.306 0-6 2.694-6 6s2.694 6 6 6 6-2.694 6-6-2.694-6-6-6z"></path>
</symbol>
<symbol id="icon-moon" viewBox="0 0 32 32">
<path d="M12.188 7.813c0-1.644 0.331-3.206 0.931-4.631-5.7 1.381-9.931 6.513-9.931 12.631 0 7.175 5.825 13 13 13 6.119 0 11.25-4.231 12.631-9.931-1.425 0.6-2.994 0.931-4.631 0.931-6.625 0-12-5.375-12-12z"></path>
</symbol>
<symbol id="icon-arrow" viewBox="0 0 32 32">
<path d="M5.313 17.336h16.232l-7.481 7.481 1.937 1.87 10.688-10.688-10.688-10.688-1.87 1.87 7.414 7.481h-16.232v2.672z"></path>
</symbol>
<symbol id="icon-close" viewBox="0 0 32 32">
<path d="M25.313 8.55l-1.862-1.862-7.45 7.45-7.45-7.45-1.862 1.862 7.45 7.45-7.45 7.45 1.862 1.862 7.45-7.45 7.45 7.45 1.862-1.862-7.45-7.45z"></path>
</symbol>
<symbol id="icon-comments" viewBox="0 0 32 32">
<path d="M26.938 20.038c0-0.275 0.075-0.538 0.206-0.762 0.038-0.069 0.087-0.131 0.131-0.194 1.087-1.625 1.725-3.569 1.725-5.644 0.019-5.763-4.844-10.438-10.856-10.438-5.244 0-9.619 3.569-10.644 8.306-0.15 0.694-0.231 1.4-0.231 2.138 0 5.769 4.675 10.569 10.688 10.569 0.956 0 2.244-0.288 2.95-0.481s1.406-0.45 1.587-0.519c0.181-0.069 0.381-0.106 0.581-0.106 0.225 0 0.438 0.044 0.631 0.125l3.544 1.256s0.15 0.063 0.244 0.063c0.275 0 0.5-0.219 0.5-0.5 0-0.063-0.031-0.169-0.031-0.169l-1.025-3.644z"></path>
<path d="M19.906 24.531c-0.225 0.063-0.512 0.131-0.825 0.2-0.656 0.137-1.494 0.281-2.125 0.281-6.012 0-10.688-4.8-10.688-10.569 0-0.412 0.044-0.938 0.094-1.338 0.037-0.269 0.081-0.537 0.144-0.8 0.063-0.281 0.138-0.563 0.219-0.838l-0.5 0.444c-2.050 1.787-3.225 4.338-3.225 6.994 0 1.831 0.531 3.594 1.55 5.125 0.144 0.219 0.225 0.387 0.2 0.5s-0.744 3.875-0.744 3.875c-0.038 0.181 0.031 0.363 0.169 0.481 0.094 0.075 0.206 0.113 0.319 0.113 0.063 0 0.125-0.012 0.181-0.038l3.506-1.381c0.113-0.044 0.231-0.069 0.356-0.069 0 0 0.15-0.012 0.394 0.081 1.181 0.462 2.487 0.75 3.794 0.75 2.912 0 5.65-1.256 7.506-3.444 0 0 0.2-0.275 0.431-0.6-0.231 0.081-0.494 0.163-0.756 0.231z"></path>
</symbol>
<symbol id="icon-star" viewBox="0 0 32 32">
<path d="M28.938 12h-9.194l-2.794-8.338c-0.137-0.406-0.519-0.663-0.95-0.663s-0.813 0.256-0.95 0.663l-2.794 8.338h-9.256c-0.55 0-1 0.45-1 1 0 0.056 0.006 0.119 0.019 0.169 0.013 0.219 0.112 0.463 0.419 0.706l7.556 5.325-2.9 8.431c-0.144 0.406 0 0.863 0.344 1.125 0.181 0.131 0.35 0.244 0.563 0.244 0.206 0 0.45-0.106 0.625-0.225l7.375-5.256 7.375 5.256c0.175 0.125 0.419 0.225 0.625 0.225 0.212 0 0.381-0.106 0.556-0.244 0.35-0.262 0.488-0.712 0.344-1.125l-2.9-8.431 7.494-5.375 0.181-0.156c0.163-0.175 0.325-0.412 0.325-0.669 0-0.55-0.512-1-1.063-1z"></path>
</symbol>
<symbol id="icon-search" viewBox="0 0 32 32">
<path d="M27.719 26.262l-6.675-6.738c1.306-1.637 2.094-3.713 2.094-5.969 0-5.281-4.281-9.563-9.569-9.563s-9.569 4.287-9.569 9.569 4.281 9.563 9.569 9.563c2.287 0 4.381-0.8 6.031-2.137l6.631 6.694c0.2 0.212 0.475 0.319 0.744 0.319 0.256 0 0.512-0.094 0.706-0.281 0.413-0.394 0.425-1.044 0.038-1.456zM13.569 21.069c-2.006 0-3.894-0.781-5.313-2.2s-2.2-3.306-2.2-5.306c0-2.006 0.781-3.894 2.2-5.306 1.419-1.419 3.306-2.2 5.313-2.2s3.894 0.781 5.313 2.2c1.419 1.419 2.2 3.306 2.2 5.306 0 2.006-0.781 3.894-2.2 5.306-1.419 1.419-3.306 2.2-5.313 2.2z"></path>
</symbol>
<symbol id="icon-send" viewBox="0 0 32 32">
<path d="M27.244 4.056l-22.944 10c-0.406 0.194-0.394 0.775 0.019 0.956l6.206 3.506c0.369 0.206 0.825 0.163 1.144-0.113l12.238-10.55c0.081-0.069 0.275-0.2 0.35-0.125 0.081 0.081-0.044 0.269-0.113 0.35l-10.588 11.925c-0.294 0.331-0.338 0.819-0.1 1.194l4.056 6.506c0.2 0.394 0.769 0.387 0.95-0.012l9.488-22.944c0.206-0.45-0.262-0.906-0.706-0.694z"></path>
</symbol>
<symbol id="icon-heart" viewBox="0 0 32 32">
<path d="M22 3.5h-0.063c-2.481 0-4.675 1.313-5.938 3.25-1.262-1.938-3.456-3.25-5.938-3.25h-0.063c-3.869 0.038-7 3.181-7 7.063 0 2.313 1.013 5.594 2.987 8.294 3.763 5.144 10.012 9.644 10.012 9.644s6.25-4.5 10.012-9.644c1.975-2.7 2.988-5.981 2.988-8.294 0-3.881-3.131-7.025-7-7.063z"></path>
</symbol>
<symbol id="icon-rss" viewBox="0 0 32 32">
<path d="M7.494 21.006c-1.925 0-3.494 1.569-3.494 3.488 0 1.925 1.569 3.475 3.494 3.475 1.931 0 3.494-1.556 3.494-3.475s-1.563-3.488-3.494-3.488z"></path>
<path d="M4 12v4.994c3 0 5.881 0.887 8 3.006s3 4.994 3 8h5c0-8.744-7.25-16-16-16z"></path>
<path d="M4 4v4.994c10.688 0 18.994 8.312 18.994 19.006h5.006c0-13.231-10.75-24-24-24z"></path>
</symbol>
<symbol id="icon-arrow-forward" viewBox="0 0 32 32">
<path d="M18.381 16l-7.944-7.938c-0.588-0.588-0.588-1.537 0-2.119s1.537-0.581 2.125 0l9 8.994c0.569 0.569 0.581 1.481 0.044 2.069l-9.037 9.056c-0.294 0.294-0.681 0.438-1.063 0.438s-0.769-0.144-1.063-0.438c-0.588-0.587-0.588-1.538 0-2.119l7.938-7.944z"></path>
</symbol>
<symbol id="icon-twitter" viewBox="0 0 32 32">
<path d="M30.75 6.844c-1.087 0.481-2.25 0.806-3.475 0.956 1.25-0.75 2.212-1.938 2.663-3.35-1.169 0.694-2.462 1.2-3.844 1.469-1.106-1.181-2.681-1.919-4.419-1.919-3.344 0-6.050 2.712-6.050 6.056 0 0.475 0.050 0.938 0.156 1.381-5.031-0.25-9.494-2.662-12.475-6.331-0.519 0.894-0.819 1.938-0.819 3.044 0 2.1 1.075 3.956 2.7 5.044-1-0.025-1.938-0.3-2.75-0.756v0.075c0 2.938 2.088 5.381 4.856 5.937-0.506 0.137-1.044 0.212-1.594 0.212-0.388 0-0.769-0.038-1.138-0.113 0.769 2.406 3.006 4.156 5.656 4.206-2.069 1.625-4.681 2.594-7.519 2.594-0.487 0-0.969-0.031-1.444-0.087 2.669 1.738 5.85 2.738 9.262 2.738 11.144 0 17.231-9.231 17.231-17.238 0-0.262-0.006-0.525-0.019-0.781 1.181-0.856 2.206-1.919 3.019-3.138z"></path>
</symbol>
<symbol id="icon-linkedin" viewBox="0 0 32 32">
<path d="M26.075 4h-20.025c-1.094 0-2.050 0.787-2.050 1.869v20.069c0 1.087 0.956 2.056 2.050 2.056h20.019c1.1 0 1.925-0.975 1.925-2.056v-20.069c0.006-1.081-0.825-1.869-1.919-1.869zM11.438 24h-3.438v-10.688h3.438v10.688zM9.838 11.688h-0.025c-1.1 0-1.813-0.819-1.813-1.844 0-1.044 0.731-1.844 1.856-1.844s1.813 0.794 1.838 1.844c0 1.025-0.713 1.844-1.856 1.844zM24 24h-3.438v-5.844c0-1.4-0.5-2.356-1.744-2.356-0.95 0-1.512 0.644-1.762 1.269-0.094 0.225-0.119 0.531-0.119 0.844v6.087h-3.438v-10.688h3.438v1.488c0.5-0.713 1.281-1.738 3.1-1.738 2.256 0 3.962 1.488 3.962 4.694v6.244z"></path>
</symbol>
<symbol id="icon-facebook" viewBox="0 0 32 32">
<path d="M26.675 4h-21.35c-0.731 0-1.325 0.594-1.325 1.325v21.35c0 0.731 0.594 1.325 1.325 1.325h10.675v-9.5h-2.869v-3.5h2.869v-2.588c0-3.1 2.15-4.787 4.919-4.787 1.325 0 2.75 0.1 3.081 0.144v3.237h-2.206c-1.506 0-1.794 0.713-1.794 1.762v2.231h3.587l-0.469 3.5h-3.119v9.5h6.675c0.731 0 1.325-0.594 1.325-1.325v-21.35c0-0.731-0.594-1.325-1.325-1.325z"></path>
</symbol>
<symbol id="icon-github" viewBox="0 0 32 32">
<path d="M16 2c-7.731 0-14 6.431-14 14.356 0 6.344 4.013 11.719 9.575 13.619 0.088 0.019 0.162 0.025 0.238 0.025 0.519 0 0.719-0.381 0.719-0.712 0-0.344-0.012-1.244-0.019-2.444-0.525 0.119-0.994 0.169-1.412 0.169-2.694 0-3.306-2.094-3.306-2.094-0.638-1.656-1.556-2.1-1.556-2.1-1.219-0.856-0.006-0.881 0.088-0.881h0.006c1.406 0.125 2.144 1.488 2.144 1.488 0.7 1.225 1.637 1.569 2.475 1.569 0.656 0 1.25-0.212 1.6-0.375 0.125-0.925 0.488-1.556 0.887-1.919-3.106-0.363-6.375-1.594-6.375-7.094 0-1.569 0.544-2.85 1.438-3.85-0.144-0.363-0.625-1.825 0.137-3.8 0 0 0.1-0.031 0.313-0.031 0.506 0 1.65 0.194 3.537 1.506 1.119-0.319 2.313-0.475 3.506-0.481 1.188 0.006 2.387 0.162 3.506 0.481 1.887-1.313 3.031-1.506 3.538-1.506 0.212 0 0.313 0.031 0.313 0.031 0.762 1.975 0.281 3.438 0.137 3.8 0.894 1.006 1.438 2.287 1.438 3.85 0 5.513-3.275 6.725-6.394 7.081 0.5 0.444 0.95 1.319 0.95 2.656 0 1.919-0.019 3.469-0.019 3.938 0 0.337 0.194 0.719 0.712 0.719 0.075 0 0.163-0.006 0.25-0.025 5.569-1.9 9.575-7.281 9.575-13.619 0-7.925-6.269-14.356-14-14.356z"></path>
</symbol>
<symbol id="icon-instagram" viewBox="0 0 32 32">
<path d="M21 6c1.325 0 2.581 0.525 3.531 1.469s1.469 2.206 1.469 3.531v10c0 1.325-0.525 2.581-1.469 3.531s-2.206 1.469-3.531 1.469h-10c-1.325 0-2.581-0.525-3.531-1.469s-1.469-2.206-1.469-3.531v-10c0-1.325 0.525-2.581 1.469-3.531s2.206-1.469 3.531-1.469h10zM21 4h-10c-3.85 0-7 3.15-7 7v10c0 3.85 3.15 7 7 7h10c3.85 0 7-3.15 7-7v-10c0-3.85-3.15-7-7-7z"></path>
<path d="M22.5 11c-0.831 0-1.5-0.669-1.5-1.5s0.669-1.5 1.5-1.5c0.825 0 1.5 0.669 1.5 1.5s-0.675 1.5-1.5 1.5zM16 12c2.206 0 4 1.794 4 4s-1.794 4-4 4-4-1.794-4-4 1.794-4 4-4zM16 10c-3.313 0-6 2.688-6 6s2.688 6 6 6 6-2.688 6-6-2.688-6-6-6z"></path>
</symbol>
<symbol id="icon-youtube" viewBox="0 0 32 32">
<path d="M31.788 9.3c0-2.813-2.069-5.075-4.625-5.075-3.462-0.162-6.994-0.225-10.6-0.225h-1.125c-3.6 0-7.137 0.063-10.6 0.225-2.55 0-4.619 2.275-4.619 5.087-0.156 2.225-0.225 4.45-0.219 6.675-0.006 2.225 0.063 4.45 0.212 6.681 0 2.813 2.069 5.094 4.619 5.094 3.637 0.169 7.369 0.244 11.162 0.238 3.8 0.012 7.519-0.063 11.162-0.238 2.556 0 4.625-2.281 4.625-5.094 0.15-2.231 0.219-4.456 0.212-6.688 0.013-2.225-0.056-4.45-0.206-6.681zM12.938 22.119v-12.281l9.063 6.137-9.063 6.144z"></path>
</symbol>
<symbol id="icon-whatsapp" viewBox="0 0 32 32">
<path d="M16.254 2c-7.591 0-13.745 6.106-13.745 13.639 0 2.577 0.721 4.987 1.972 7.043l-2.481 7.318 7.61-2.418c1.969 1.080 4.234 1.697 6.644 1.697 7.592 0 13.746-6.107 13.746-13.639s-6.154-13.639-13.746-13.639zM23.089 20.819c-0.323 0.802-1.786 1.533-2.431 1.567s-0.663 0.5-4.178-1.027c-3.514-1.527-5.628-5.24-5.795-5.479s-1.361-1.94-1.297-3.653c0.065-1.713 1.003-2.522 1.338-2.858s0.718-0.397 0.952-0.401c0.277-0.005 0.456-0.008 0.661-0.001s0.512-0.043 0.778 0.665c0.266 0.708 0.903 2.447 0.984 2.624s0.132 0.383 0.006 0.611c-0.126 0.228-0.19 0.371-0.373 0.568s-0.386 0.44-0.55 0.591c-0.182 0.167-0.373 0.348-0.181 0.704s0.853 1.522 1.861 2.484c1.295 1.236 2.412 1.646 2.756 1.832 0.345 0.188 0.55 0.167 0.764-0.058 0.213-0.225 0.915-0.984 1.162-1.323s0.479-0.273 0.796-0.146c0.317 0.128 2.010 1.035 2.355 1.222s0.575 0.283 0.657 0.431c0.082 0.149 0.056 0.846-0.267 1.647z"></path>
</symbol>
<symbol id="icon-reddit" viewBox="0 0 28 28">
<path d="M28 13.219c0 1.219-0.688 2.266-1.703 2.781 0.125 0.484 0.187 0.984 0.187 1.5 0 4.937-5.578 8.937-12.453 8.937-6.859 0-12.437-4-12.437-8.937 0-0.5 0.063-1 0.172-1.469-1.047-0.516-1.766-1.578-1.766-2.812 0-1.719 1.391-3.109 3.109-3.109 0.891 0 1.687 0.375 2.266 0.984 2.109-1.469 4.922-2.422 8.047-2.531l1.813-8.141c0.063-0.281 0.359-0.469 0.641-0.406l5.766 1.266c0.375-0.75 1.172-1.281 2.078-1.281 1.297 0 2.344 1.047 2.344 2.328 0 1.297-1.047 2.344-2.344 2.344-1.281 0-2.328-1.047-2.328-2.328l-5.219-1.156-1.625 7.375c3.141 0.094 5.984 1.031 8.109 2.5 0.562-0.594 1.359-0.953 2.234-0.953 1.719 0 3.109 1.391 3.109 3.109zM6.531 16.328c0 1.297 1.047 2.344 2.328 2.344 1.297 0 2.344-1.047 2.344-2.344 0-1.281-1.047-2.328-2.344-2.328-1.281 0-2.328 1.047-2.328 2.328zM19.187 21.875c0.234-0.234 0.234-0.578 0-0.812-0.219-0.219-0.578-0.219-0.797 0-0.938 0.953-2.953 1.281-4.391 1.281s-3.453-0.328-4.391-1.281c-0.219-0.219-0.578-0.219-0.797 0-0.234 0.219-0.234 0.578 0 0.812 1.484 1.484 4.344 1.594 5.187 1.594s3.703-0.109 5.187-1.594zM19.141 18.672c1.281 0 2.328-1.047 2.328-2.344 0-1.281-1.047-2.328-2.328-2.328-1.297 0-2.344 1.047-2.344 2.328 0 1.297 1.047 2.344 2.344 2.344z"></path>
</symbol>
</defs>
</svg>
